<svg id="visual" viewBox="0 0 1600 600" width="1600" height="600" xmlns="http://www.w3.org/2000/svg" xmlns:xlink="http://www.w3.org/1999/xlink" version="1.1"><rect x="0" y="0" width="1600" height="600" fill="#031628"></rect><defs><linearGradient id="grad1_0" x1="62.5%" y1="0%" x2="100%" y2="100%"><stop offset="-3.333333333333332%" stop-color="#0066ff" stop-opacity="1"></stop><stop offset="103.33333333333334%" stop-color="#0066ff" stop-opacity="1"></stop></linearGradient></defs><defs><linearGradient id="grad1_1" x1="62.5%" y1="0%" x2="100%" y2="100%"><stop offset="-3.333333333333332%" stop-color="#0066ff" stop-opacity="1"></stop><stop offset="103.33333333333334%" stop-color="#004db2" stop-opacity="1"></stop></linearGradient></defs><defs><linearGradient id="grad1_2" x1="62.5%" y1="0%" x2="100%" y2="100%"><stop offset="-3.333333333333332%" stop-color="#003067" stop-opacity="1"></stop><stop offset="103.33333333333334%" stop-color="#004db2" stop-opacity="1"></stop></linearGradient></defs><defs><linearGradient id="grad1_3" x1="62.5%" y1="0%" x2="100%" y2="100%"><stop offset="-3.333333333333332%" stop-color="#003067" stop-opacity="1"></stop><stop offset="103.33333333333334%" stop-color="#001122" stop-opacity="1"></stop></linearGradient></defs><defs><linearGradient id="grad2_0" x1="0%" y1="0%" x2="37.5%" y2="100%"><stop offset="-3.333333333333332%" stop-color="#0066ff" stop-opacity="1"></stop><stop offset="103.33333333333334%" stop-color="#0066ff" stop-opacity="1"></stop></linearGradient></defs><defs><linearGradient id="grad2_1" x1="0%" y1="0%" x2="37.5%" y2="100%"><stop offset="-3.333333333333332%" stop-color="#004db2" stop-opacity="1"></stop><stop offset="103.33333333333334%" stop-color="#0066ff" stop-opacity="1"></stop></linearGradient></defs><defs><linearGradient id="grad2_2" x1="0%" y1="0%" x2="37.5%" y2="100%"><stop offset="-3.333333333333332%" stop-color="#004db2" stop-opacity="1"></stop><stop offset="103.33333333333334%" stop-color="#003067" stop-opacity="1"></stop></linearGradient></defs><defs><linearGradient id="grad2_3" x1="0%" y1="0%" x2="37.5%" y2="100%"><stop offset="-3.333333333333332%" stop-color="#001122" stop-opacity="1"></stop><stop offset="103.33333333333334%" stop-color="#003067" stop-opacity="1"></stop></linearGradient></defs><g transform="translate(1600, 0)"><path d="M0 420C-34.8 411.1 -69.6 402.1 -105.1 392.2C-140.5 382.2 -176.6 371.3 -200 346.4C-223.4 321.5 -234.2 282.8 -258.1 258.1C-282 233.4 -319 222.8 -347.3 200.5C-375.5 178.2 -395 144.1 -405.7 108.7C-416.3 73.3 -418.2 36.7 -420 0L0 0Z" fill="#002143"></path><path d="M0 315C-26.1 308.3 -52.2 301.6 -78.8 294.1C-105.4 286.7 -132.4 278.5 -150 259.8C-167.6 241.2 -175.6 212.1 -193.6 193.6C-211.5 175.1 -239.3 167.1 -260.5 150.4C-281.7 133.6 -296.3 108.1 -304.3 81.5C-312.3 55 -313.6 27.5 -315 0L0 0Z" fill="#003e8c"></path><path d="M0 210C-17.4 205.5 -34.8 201.1 -52.5 196.1C-70.3 191.1 -88.3 185.6 -100 173.2C-111.7 160.8 -117.1 141.4 -129 129C-141 116.7 -159.5 111.4 -173.6 100.3C-187.8 89.1 -197.5 72 -202.8 54.4C-208.2 36.7 -209.1 18.3 -210 0L0 0Z" fill="#005ad9"></path><path d="M0 105C-8.7 102.8 -17.4 100.5 -26.3 98C-35.1 95.6 -44.1 92.8 -50 86.6C-55.9 80.4 -58.5 70.7 -64.5 64.5C-70.5 58.4 -79.8 55.7 -86.8 50.1C-93.9 44.5 -98.8 36 -101.4 27.2C-104.1 18.3 -104.5 9.2 -105 0L0 0Z" fill="#0066ff"></path></g><g transform="translate(0, 600)"><path d="M0 -420C34.9 -413.4 69.8 -406.9 107.2 -399.9C144.5 -392.9 184.3 -385.5 205 -355.1C225.7 -324.7 227.4 -271.3 237.6 -237.6C247.8 -203.9 266.6 -190 300.5 -173.5C334.4 -157 383.3 -138 405.7 -108.7C428.1 -79.4 424.1 -39.7 420 0L0 0Z" fill="#002143"></path><path d="M0 -315C26.2 -310.1 52.4 -305.2 80.4 -299.9C108.4 -294.7 138.2 -289.1 153.7 -266.3C169.3 -243.5 170.5 -203.4 178.2 -178.2C185.9 -152.9 200 -142.5 225.4 -130.1C250.8 -117.8 287.5 -103.5 304.3 -81.5C321.1 -59.5 318 -29.8 315 0L0 0Z" fill="#003e8c"></path><path d="M0 -210C17.5 -206.7 34.9 -203.4 53.6 -199.9C72.2 -196.5 92.1 -192.7 102.5 -177.5C112.9 -162.3 113.7 -135.6 118.8 -118.8C123.9 -102 133.3 -95 150.3 -86.8C167.2 -78.5 191.6 -69 202.8 -54.4C214.1 -39.7 212 -19.8 210 0L0 0Z" fill="#005ad9"></path><path d="M0 -105C8.7 -103.4 17.5 -101.7 26.8 -100C36.1 -98.2 46.1 -96.4 51.2 -88.8C56.4 -81.2 56.8 -67.8 59.4 -59.4C62 -51 66.7 -47.5 75.1 -43.4C83.6 -39.3 95.8 -34.5 101.4 -27.2C107 -19.8 106 -9.9 105 0L0 0Z" fill="#0066ff"></path></g></svg>