<svg version="1.1" xmlns="http://www.w3.org/2000/svg" width="512" height="512">
    <path
        d="M0 0 C1.09057709 0.00131424 1.09057709 0.00131424 2.20318604 0.00265503 C13.84653145 0.04884736 24.78473711 0.84459278 35.9375 4.375 C36.71689941 4.61637695 37.49629883 4.85775391 38.29931641 5.10644531 C55.45635221 10.5678441 70.10082774 18.93973367 83.9375 30.375 C85.09378906 31.31859375 85.09378906 31.31859375 86.2734375 32.28125 C90.9866663 36.25408653 95.05846201 40.59002957 98.9375 45.375 C99.63746094 46.23738281 100.33742188 47.09976563 101.05859375 47.98828125 C120.78163595 73.24881536 128.41534316 101.69898522 128.9375 133.375 C130.03707031 133.8596875 131.13664062 134.344375 132.26953125 134.84375 C141.22673128 138.87108906 149.32465549 143.06892723 156.9375 149.375 C157.78699219 150.07367188 158.63648438 150.77234375 159.51171875 151.4921875 C173.56016893 163.58289042 183.30087726 178.76055394 188.9375 196.375 C189.41703125 197.83099609 189.41703125 197.83099609 189.90625 199.31640625 C196.63995597 224.22488341 192.03559329 251.30196155 179.625 273.5 C165.90835673 296.20340955 145.17024394 311.59888616 119.71484375 318.46484375 C114.34680993 319.75827899 109.33649777 320.49977123 103.81185436 320.50922108 C102.59817029 320.51367892 101.38448622 320.51813676 100.13402385 320.52272969 C98.79566331 320.52264041 97.45730277 320.52245059 96.11894226 320.52217102 C94.69044817 320.52547273 93.261955 320.52919894 91.83346301 320.5333125 C87.91209043 320.54330607 83.99073315 320.54704504 80.06934965 320.54970181 C75.838 320.55361282 71.60666238 320.56319072 67.37532043 320.57191467 C57.1574068 320.59165843 46.9394922 320.60174346 36.72156426 320.61064246 C31.90465987 320.61502951 27.08775657 320.6203953 22.27085304 320.62563133 C6.24884488 320.64264288 -9.77316261 320.65713516 -25.79517841 320.66438007 C-29.95109877 320.66628984 -34.10701912 320.66821019 -38.26293945 320.67016602 C-39.29582111 320.67064976 -40.32870276 320.6711335 -41.39288386 320.6716319 C-58.10995608 320.67992511 -74.82695658 320.70525038 -91.5439975 320.73774669 C-108.7238495 320.77086913 -125.90366512 320.78883359 -143.0835492 320.79202431 C-152.7225112 320.79418481 -162.36136867 320.80286558 -172.00029945 320.82848549 C-180.21261545 320.85026356 -188.42480152 320.85820818 -196.63714311 320.84851871 C-200.82156807 320.84399427 -205.00572536 320.84575096 -209.19011307 320.86528015 C-242.65686573 321.01278097 -269.27369666 315.57218376 -294.25 291.5 C-314.44743687 270.73539641 -320.62558133 245.67087521 -320.34375 217.48046875 C-319.66549682 191.77128209 -306.75033798 169.32525288 -288.61328125 151.68359375 C-271.80565697 136.47179291 -250.5880102 128.8414391 -228.1875 127.8125 C-227.30835938 127.76931641 -226.42921875 127.72613281 -225.5234375 127.68164062 C-223.36994203 127.57630661 -221.21623936 127.47522351 -219.0625 127.375 C-218.5778125 126.27542969 -218.093125 125.17585938 -217.59375 124.04296875 C-213.56641094 115.08576872 -209.36857277 106.98784451 -203.0625 99.375 C-202.36382812 98.52550781 -201.66515625 97.67601562 -200.9453125 96.80078125 C-188.85766464 82.7558808 -173.67617588 73.00455258 -156.0625 67.375 C-155.08023438 67.0553125 -154.09796875 66.735625 -153.0859375 66.40625 C-140.78443391 63.10956914 -123.34133168 61.72028064 -111.0625 65.375 C-110.81242188 64.67375 -110.56234375 63.9725 -110.3046875 63.25 C-99.25590641 37.67797835 -71.90916082 18.50332792 -47.04541016 8.14501953 C-31.7456187 2.20368214 -16.37083163 -0.04833218 0 0 Z "
        fill="#fff" transform="translate(320.0625,95.625)" />
</svg>